# Blender 3.4.1
# www.blender.org
o TheRuins_Corner
v 6.760964 7.170053 -3.739036
v 6.760964 7.170053 -3.021928
v 6.760964 -0.001026 -3.021928
v 6.760964 -0.001026 -3.739036
v -3.739036 7.170053 -3.739036
v -3.021928 7.170053 -3.021928
v -3.021928 -0.001026 -3.021928
v -3.739036 -0.001026 -3.739036
v -3.739036 7.170053 6.760964
v -3.021928 7.170053 6.760964
v -3.021928 -0.001026 6.760964
v -3.739036 -0.001026 6.760964
vn -0.0000 1.0000 -0.0000
vn -0.0000 -0.0000 1.0000
vn -0.0000 -0.0000 -1.0000
vn -1.0000 -0.0000 -0.0000
vn 1.0000 -0.0000 -0.0000
vt 0.250023 0.264326
vt 0.250023 0.281399
vt 0.232948 0.264326
vt 0.232948 0.093601
vt 0.250023 0.093601
vt 0.500000 0.264326
vt 0.482929 0.281399
vt 0.517071 0.281399
vt 0.999958 0.264326
vt 0.000042 0.264326
vt 0.999958 0.093601
vt 0.000042 0.093601
vt 0.500000 0.093601
vt 0.749977 0.264326
vt 0.749977 0.281399
vt 0.767052 0.264326
vt 0.767052 0.093601
vt 0.749977 0.093601
s 0
f 5/6/1 6/7/1 2/2/1 1/1/1
f 9/14/1 10/15/1 6/8/1 5/6/1
f 9/14/2 12/18/2 11/17/2 10/16/2
f 1/1/3 4/5/3 8/13/3 5/6/3
f 5/6/4 8/13/4 12/18/4 9/14/4
f 1/1/5 2/3/5 3/4/5 4/5/5
f 7/11/5 6/9/5 10/16/5 11/17/5
f 2/3/2 6/10/2 7/12/2 3/4/2
